<svg width="192" height="192" viewBox="0 0 192 192" fill="none" xmlns="http://www.w3.org/2000/svg">
<circle cx="96" cy="96" r="91.5" fill="#BB0000" stroke="white" stroke-width="9"/>
<path d="M72.12 96.2C72.12 102.515 73.528 108.061 76.344 112.84C79.2453 117.619 83 121.331 87.608 123.976C92.3013 126.536 97.3787 127.816 102.84 127.816C107.107 127.816 110.947 127.261 114.36 126.152C117.773 125.043 120.845 123.549 123.576 121.672C126.392 119.709 128.824 117.533 130.872 115.144V133.064C127.117 136.136 123.064 138.483 118.712 140.104C114.36 141.725 108.899 142.536 102.328 142.536C95.7573 142.536 89.6133 141.427 83.896 139.208C78.264 136.989 73.3573 133.789 69.176 129.608C64.9947 125.427 61.7093 120.52 59.32 114.888C57.016 109.171 55.864 102.941 55.864 96.2C55.864 89.4587 57.016 83.272 59.32 77.64C61.7093 71.9227 64.9947 66.9733 69.176 62.792C73.3573 58.6107 78.264 55.4107 83.896 53.192C89.6133 50.9733 95.7573 49.864 102.328 49.864C108.899 49.864 114.36 50.6747 118.712 52.296C123.064 53.9173 127.117 56.264 130.872 59.336V77.256C128.824 74.8667 126.392 72.7333 123.576 70.856C120.845 68.8933 117.773 67.3573 114.36 66.248C110.947 65.1387 107.107 64.584 102.84 64.584C97.3787 64.584 92.3013 65.9067 87.608 68.552C83 71.112 79.2453 74.7813 76.344 79.56C73.528 84.2533 72.12 89.8 72.12 96.2Z" fill="white"/>
</svg>
