<svg width="192" height="192" viewBox="0 0 192 192" fill="none" xmlns="http://www.w3.org/2000/svg">
<circle cx="96" cy="96" r="91.5" fill="url(#paint0_linear_13_13)" stroke="#D20001" stroke-width="9"/>
<mask id="path-2-outside-1_13_13" maskUnits="userSpaceOnUse" x="48" y="40" width="90" height="110" fill="black">
<rect fill="white" x="48" y="40" width="90" height="110"/>
<path d="M129.81 134.85C128.423 135.803 126.343 136.973 123.57 138.36C120.883 139.66 117.677 140.787 113.95 141.74C110.31 142.693 106.28 143.127 101.86 143.04C94.4933 142.953 87.8633 141.653 81.97 139.14C76.1633 136.627 71.2233 133.203 67.15 128.87C63.0767 124.45 59.9133 119.423 57.66 113.79C55.4933 108.07 54.41 102.003 54.41 95.59C54.41 88.4833 55.5367 81.9833 57.79 76.09C60.0433 70.11 63.25 64.91 67.41 60.49C71.6567 56.07 76.5967 52.6467 82.23 50.22C87.95 47.7933 94.19 46.58 100.95 46.58C106.757 46.58 112 47.36 116.68 48.92C121.36 50.48 125.303 52.3 128.51 54.38L123.05 67.38C120.537 65.6467 117.417 64 113.69 62.44C110.05 60.7933 105.977 59.97 101.47 59.97C97.05 59.97 92.8467 60.88 88.86 62.7C84.96 64.4333 81.4933 66.9033 78.46 70.11C75.5133 73.23 73.1733 76.9133 71.44 81.16C69.7067 85.32 68.84 89.87 68.84 94.81C68.84 99.8367 69.62 104.473 71.18 108.72C72.74 112.967 74.95 116.65 77.81 119.77C80.7567 122.89 84.2667 125.317 88.34 127.05C92.4133 128.783 97.0067 129.65 102.12 129.65C106.973 129.65 111.22 128.913 114.86 127.44C118.587 125.967 121.62 124.277 123.96 122.37L129.81 134.85Z"/>
</mask>
<path d="M129.81 134.85C128.423 135.803 126.343 136.973 123.57 138.36C120.883 139.66 117.677 140.787 113.95 141.74C110.31 142.693 106.28 143.127 101.86 143.04C94.4933 142.953 87.8633 141.653 81.97 139.14C76.1633 136.627 71.2233 133.203 67.15 128.87C63.0767 124.45 59.9133 119.423 57.66 113.79C55.4933 108.07 54.41 102.003 54.41 95.59C54.41 88.4833 55.5367 81.9833 57.79 76.09C60.0433 70.11 63.25 64.91 67.41 60.49C71.6567 56.07 76.5967 52.6467 82.23 50.22C87.95 47.7933 94.19 46.58 100.95 46.58C106.757 46.58 112 47.36 116.68 48.92C121.36 50.48 125.303 52.3 128.51 54.38L123.05 67.38C120.537 65.6467 117.417 64 113.69 62.44C110.05 60.7933 105.977 59.97 101.47 59.97C97.05 59.97 92.8467 60.88 88.86 62.7C84.96 64.4333 81.4933 66.9033 78.46 70.11C75.5133 73.23 73.1733 76.9133 71.44 81.16C69.7067 85.32 68.84 89.87 68.84 94.81C68.84 99.8367 69.62 104.473 71.18 108.72C72.74 112.967 74.95 116.65 77.81 119.77C80.7567 122.89 84.2667 125.317 88.34 127.05C92.4133 128.783 97.0067 129.65 102.12 129.65C106.973 129.65 111.22 128.913 114.86 127.44C118.587 125.967 121.62 124.277 123.96 122.37L129.81 134.85Z" fill="#FFFCFE"/>
<path d="M129.81 134.85L133.209 139.794L137.403 136.911L135.243 132.303L129.81 134.85ZM123.57 138.36L126.183 143.761L126.218 143.744L126.253 143.727L123.57 138.36ZM113.95 141.74L112.463 135.927L112.446 135.931L112.43 135.936L113.95 141.74ZM101.86 143.04L101.978 137.041L101.954 137.041L101.931 137.04L101.86 143.04ZM81.97 139.14L79.5867 144.646L79.6015 144.653L79.6163 144.659L81.97 139.14ZM67.15 128.87L62.7379 132.936L62.7579 132.958L62.7782 132.979L67.15 128.87ZM57.66 113.79L52.049 115.915L52.0686 115.967L52.0891 116.018L57.66 113.79ZM57.79 76.09L63.3943 78.2328L63.3995 78.2192L63.4046 78.2057L57.79 76.09ZM67.41 60.49L63.0834 56.333L63.062 56.3553L63.0408 56.3778L67.41 60.49ZM82.23 50.22L79.8867 44.6965L79.8715 44.703L79.8563 44.7095L82.23 50.22ZM116.68 48.92L114.783 54.6121L114.783 54.6121L116.68 48.92ZM128.51 54.38L134.042 56.7034L135.985 52.0769L131.775 49.3462L128.51 54.38ZM123.05 67.38L119.644 72.3193L125.722 76.5116L128.582 69.7034L123.05 67.38ZM113.69 62.44L111.217 67.9066L111.295 67.9417L111.373 67.9746L113.69 62.44ZM88.86 62.7L91.2968 68.1829L91.3244 68.1706L91.3518 68.1581L88.86 62.7ZM78.46 70.11L74.1012 65.9868L74.0979 65.9903L78.46 70.11ZM71.44 81.16L76.9785 83.4677L76.9868 83.4476L76.9951 83.4274L71.44 81.16ZM71.18 108.72L65.548 110.789L65.548 110.789L71.18 108.72ZM77.81 119.77L73.3871 123.824L73.4173 123.857L73.4479 123.89L77.81 119.77ZM88.34 127.05L85.9907 132.571L85.9907 132.571L88.34 127.05ZM114.86 127.44L112.654 121.86L112.631 121.869L112.609 121.878L114.86 127.44ZM123.96 122.37L129.393 119.823L126.13 112.862L120.17 117.719L123.96 122.37ZM126.411 129.906C125.369 130.622 123.581 131.646 120.887 132.993L126.253 143.727C129.105 142.301 131.478 140.984 133.209 139.794L126.411 129.906ZM120.957 132.959C118.717 134.043 115.906 135.046 112.463 135.927L115.437 147.553C119.447 146.527 123.05 145.277 126.183 143.761L120.957 132.959ZM112.43 135.936C109.408 136.727 105.939 137.119 101.978 137.041L101.742 149.039C106.621 149.135 111.212 148.659 115.47 147.544L112.43 135.936ZM101.931 137.04C95.2325 136.962 89.3947 135.784 84.3237 133.621L79.6163 144.659C86.3319 147.523 93.7542 148.945 101.789 149.04L101.931 137.04ZM84.3533 133.634C79.2491 131.424 74.9992 128.46 71.5218 124.761L62.7782 132.979C67.4474 137.947 73.0776 141.829 79.5867 144.646L84.3533 133.634ZM71.5621 124.804C67.9884 120.926 65.2156 116.524 63.2309 111.562L52.0891 116.018C54.6111 122.323 58.1649 127.974 62.7379 132.936L71.5621 124.804ZM63.271 111.665C61.3739 106.656 60.41 101.313 60.41 95.59H48.41C48.41 102.694 49.6128 109.484 52.049 115.915L63.271 111.665ZM60.41 95.59C60.41 89.1239 61.4335 83.3611 63.3943 78.2328L52.1857 73.9472C49.6398 80.6055 48.41 87.8428 48.41 95.59H60.41ZM63.4046 78.2057C65.3937 72.927 68.1905 68.4152 71.7792 64.6022L63.0408 56.3778C58.3095 61.4048 54.693 67.2929 52.1754 73.9743L63.4046 78.2057ZM71.7366 64.647C75.4287 60.8042 79.7046 57.8409 84.6037 55.7305L79.8563 44.7095C73.4888 47.4524 67.8847 51.3358 63.0834 56.333L71.7366 64.647ZM84.5733 55.7435C89.4891 53.658 94.9238 52.58 100.95 52.58V40.58C93.4562 40.58 86.4109 41.9286 79.8867 44.6965L84.5733 55.7435ZM100.95 52.58C106.223 52.58 110.812 53.2885 114.783 54.6121L118.577 43.2279C113.188 41.4315 107.29 40.58 100.95 40.58V52.58ZM114.783 54.6121C119.112 56.0553 122.567 57.6767 125.245 59.4138L131.775 49.3462C128.04 46.9233 123.608 44.9047 118.577 43.2279L114.783 54.6121ZM122.978 52.0566L117.518 65.0566L128.582 69.7034L134.042 56.7034L122.978 52.0566ZM126.456 62.4407C123.512 60.4103 120.001 58.5775 116.007 56.9053L111.373 67.9746C114.832 69.4225 117.561 70.883 119.644 72.3193L126.456 62.4407ZM116.163 56.9733C111.652 54.9327 106.72 53.97 101.47 53.97V65.97C105.233 65.97 108.448 66.654 111.217 67.9066L116.163 56.9733ZM101.47 53.97C96.1978 53.97 91.144 55.0616 86.3682 57.2419L91.3518 68.1581C94.5494 66.6983 97.9022 65.97 101.47 65.97V53.97ZM86.4232 57.2171C81.7741 59.2834 77.6601 62.2246 74.1012 65.9868L82.8188 74.2332C85.3266 71.5821 88.1459 69.5833 91.2968 68.1829L86.4232 57.2171ZM74.0979 65.9903C70.6085 69.6849 67.8787 74.0077 65.8849 78.8926L76.9951 83.4274C78.4679 79.8189 80.4181 76.7751 82.8221 74.2297L74.0979 65.9903ZM65.9015 78.8523C63.8354 83.811 62.84 89.1544 62.84 94.81H74.84C74.84 90.5856 75.5779 86.829 76.9785 83.4677L65.9015 78.8523ZM62.84 94.81C62.84 100.465 63.719 105.81 65.548 110.789L76.812 106.651C75.521 103.137 74.84 99.2088 74.84 94.81H62.84ZM65.548 110.789C67.3589 115.719 69.9628 120.089 73.3871 123.824L82.2329 115.716C79.9372 113.211 78.1211 110.215 76.812 106.651L65.548 110.789ZM73.4479 123.89C76.9799 127.629 81.1817 130.525 85.9907 132.571L90.6893 121.529C87.3517 120.109 84.5334 118.151 82.1721 115.65L73.4479 123.89ZM85.9907 132.571C90.9132 134.666 96.3234 135.65 102.12 135.65V123.65C97.6899 123.65 93.9135 122.901 90.6893 121.529L85.9907 132.571ZM102.12 135.65C107.569 135.65 112.609 134.824 117.111 133.002L112.609 121.878C109.831 123.003 106.378 123.65 102.12 123.65V135.65ZM117.066 133.02C121.19 131.389 124.806 129.421 127.75 127.021L120.17 117.719C118.434 119.133 115.984 120.544 112.654 121.86L117.066 133.02ZM118.527 124.917L124.377 137.397L135.243 132.303L129.393 119.823L118.527 124.917Z" fill="#FF0000" mask="url(#path-2-outside-1_13_13)"/>
<defs>
<linearGradient id="paint0_linear_13_13" x1="96" y1="0" x2="96" y2="192" gradientUnits="userSpaceOnUse">
<stop stop-color="#3399FF"/>
<stop offset="1" stop-color="#1F5C99"/>
</linearGradient>
</defs>
</svg>
