<svg width="192" height="192" viewBox="0 0 192 192" fill="none" xmlns="http://www.w3.org/2000/svg">
<circle cx="96" cy="96" r="94.5" fill="#BB0000" stroke="white" stroke-width="3"/>
<path d="M29.375 96.75C29.375 100.45 30.2 103.7 31.85 106.5C33.55 109.3 35.75 111.475 38.45 113.025C41.2 114.525 44.175 115.275 47.375 115.275C49.875 115.275 52.125 114.95 54.125 114.3C56.125 113.65 57.925 112.775 59.525 111.675C61.175 110.525 62.6 109.25 63.8 107.85V118.35C61.6 120.15 59.225 121.525 56.675 122.475C54.125 123.425 50.925 123.9 47.075 123.9C43.225 123.9 39.625 123.25 36.275 121.95C32.975 120.65 30.1 118.775 27.65 116.325C25.2 113.875 23.275 111 21.875 107.7C20.525 104.35 19.85 100.7 19.85 96.75C19.85 92.8 20.525 89.175 21.875 85.875C23.275 82.525 25.2 79.625 27.65 77.175C30.1 74.725 32.975 72.85 36.275 71.55C39.625 70.25 43.225 69.6 47.075 69.6C50.925 69.6 54.125 70.075 56.675 71.025C59.225 71.975 61.6 73.35 63.8 75.15V85.65C62.6 84.25 61.175 83 59.525 81.9C57.925 80.75 56.125 79.85 54.125 79.2C52.125 78.55 49.875 78.225 47.375 78.225C44.175 78.225 41.2 79 38.45 80.55C35.75 82.05 33.55 84.2 31.85 87C30.2 89.75 29.375 93 29.375 96.75ZM74.7055 70.5H83.5555V123H74.7055V70.5ZM79.9555 78.3V70.5H90.5305C94.3305 70.5 97.6305 71.175 100.43 72.525C103.28 73.825 105.48 75.7 107.03 78.15C108.58 80.55 109.355 83.425 109.355 86.775C109.355 90.125 108.58 93.025 107.03 95.475C105.48 97.925 103.28 99.825 100.43 101.175C97.6305 102.475 94.3305 103.125 90.5305 103.125H79.9555V95.325H90.5305C93.5805 95.325 96.0305 94.6 97.8805 93.15C99.7305 91.7 100.655 89.575 100.655 86.775C100.655 83.975 99.7305 81.875 97.8805 80.475C96.0305 79.025 93.5805 78.3 90.5305 78.3H79.9555ZM127.815 91.05L124.215 123H115.065L122.265 67.875L143.79 103.5L165.39 67.875L172.59 123H163.44L159.765 91.05L143.79 118.125L127.815 91.05Z" fill="white"/>
</svg>
